<svg viewBox="0 0 256 256" xmlns="http://www.w3.org/2000/svg" preserveAspectRatio="xMidYMid"><path d="M0 0h256v256H0V0z" fill="#F7DF1E"/><path d="M67.3117 213.9323l19.591-11.856c3.7794 6.701 7.2175 12.3708 15.4644 12.3708 7.9051 0 12.889-3.0923 12.889-15.1202v-81.7981h24.0575v82.1382c0 24.9173-14.6058 36.259-35.9152 36.259-19.2451 0-30.4165-9.9674-36.087-21.9957M152.381 211.3544l19.5884-11.3416c5.1566 8.4212 11.8585 14.607 23.715 14.607 9.9681 0 16.3246-4.9838 16.3246-11.8576 0-8.2485-6.5296-11.1702-17.5278-15.9801l-6.0128-2.5795c-17.3572-7.3879-28.871-16.6673-28.871-36.2578 0-18.0435 13.7471-31.7915 35.2284-31.7915 15.2941 0 26.292 5.3276 34.1959 19.2471l-18.7311 12.0284c-4.1245-7.3887-8.591-10.3095-15.4644-10.3095-7.0457 0-11.514 4.4678-11.514 10.3095 0 7.2175 4.4683 10.1396 14.7778 14.6078l6.014 2.5775c20.4494 8.7645 31.9634 17.6993 31.9634 37.8043 0 21.6535-17.0123 33.5096-39.867 33.5096-22.3394 0-36.7746-10.6537-43.819-24.5736"/></svg>